<mxfile host="app.diagrams.net" agent="Mozilla/5.0 (Windows NT 10.0; Win64; x64) AppleWebKit/537.36 (KHTML, like Gecko) Chrome/134.0.0.0 Safari/537.36" version="26.2.3">
  <diagram name="Page-1" id="aSGf_ss9TgGOxgC1a0gi">
    <mxGraphModel dx="1361" dy="579" grid="1" gridSize="10" guides="1" tooltips="1" connect="1" arrows="1" fold="1" page="1" pageScale="1" pageWidth="827" pageHeight="1169" math="0" shadow="0">
      <root>
        <mxCell id="0" />
        <mxCell id="1" parent="0" />
        <mxCell id="KrkyhQDae2mYAKT2LnrB-6" style="edgeStyle=orthogonalEdgeStyle;rounded=0;orthogonalLoop=1;jettySize=auto;html=1;entryX=0;entryY=0.5;entryDx=0;entryDy=0;exitX=1;exitY=0.3333333333333333;exitDx=0;exitDy=0;exitPerimeter=0;" edge="1" parent="1" source="KrkyhQDae2mYAKT2LnrB-1" target="KrkyhQDae2mYAKT2LnrB-4">
          <mxGeometry relative="1" as="geometry">
            <mxPoint x="210" y="253" as="sourcePoint" />
          </mxGeometry>
        </mxCell>
        <mxCell id="KrkyhQDae2mYAKT2LnrB-8" style="edgeStyle=orthogonalEdgeStyle;rounded=0;orthogonalLoop=1;jettySize=auto;html=1;exitX=1;exitY=0.3333333333333333;exitDx=0;exitDy=0;exitPerimeter=0;entryX=0;entryY=0.5;entryDx=0;entryDy=0;" edge="1" parent="1" source="KrkyhQDae2mYAKT2LnrB-1" target="KrkyhQDae2mYAKT2LnrB-7">
          <mxGeometry relative="1" as="geometry" />
        </mxCell>
        <mxCell id="KrkyhQDae2mYAKT2LnrB-1" value="User" style="shape=umlActor;verticalLabelPosition=bottom;verticalAlign=top;html=1;" vertex="1" parent="1">
          <mxGeometry x="110" y="210" width="60" height="130" as="geometry" />
        </mxCell>
        <mxCell id="KrkyhQDae2mYAKT2LnrB-2" value="Simulation&lt;div&gt;Application&lt;/div&gt;" style="shape=umlFrame;whiteSpace=wrap;html=1;pointerEvents=0;width=80;height=40;" vertex="1" parent="1">
          <mxGeometry x="240" y="50" width="620" height="390" as="geometry" />
        </mxCell>
        <mxCell id="KrkyhQDae2mYAKT2LnrB-4" value="Setup the Simulation" style="ellipse;whiteSpace=wrap;html=1;" vertex="1" parent="1">
          <mxGeometry x="320" y="80" width="140" height="70" as="geometry" />
        </mxCell>
        <mxCell id="KrkyhQDae2mYAKT2LnrB-10" style="edgeStyle=orthogonalEdgeStyle;rounded=0;orthogonalLoop=1;jettySize=auto;html=1;exitX=1;exitY=0.5;exitDx=0;exitDy=0;entryX=0;entryY=0.5;entryDx=0;entryDy=0;" edge="1" parent="1" source="KrkyhQDae2mYAKT2LnrB-7" target="KrkyhQDae2mYAKT2LnrB-9">
          <mxGeometry relative="1" as="geometry" />
        </mxCell>
        <mxCell id="KrkyhQDae2mYAKT2LnrB-16" style="edgeStyle=orthogonalEdgeStyle;rounded=0;orthogonalLoop=1;jettySize=auto;html=1;exitX=1;exitY=0.5;exitDx=0;exitDy=0;entryX=0;entryY=0.5;entryDx=0;entryDy=0;" edge="1" parent="1" source="KrkyhQDae2mYAKT2LnrB-7" target="KrkyhQDae2mYAKT2LnrB-12">
          <mxGeometry relative="1" as="geometry" />
        </mxCell>
        <mxCell id="KrkyhQDae2mYAKT2LnrB-7" value="Start the Simulation" style="ellipse;whiteSpace=wrap;html=1;" vertex="1" parent="1">
          <mxGeometry x="320" y="160" width="140" height="70" as="geometry" />
        </mxCell>
        <mxCell id="KrkyhQDae2mYAKT2LnrB-9" value="Invalid Input" style="ellipse;whiteSpace=wrap;html=1;" vertex="1" parent="1">
          <mxGeometry x="580" y="90" width="140" height="70" as="geometry" />
        </mxCell>
        <mxCell id="KrkyhQDae2mYAKT2LnrB-11" value="Includes" style="text;align=center;fontStyle=1;verticalAlign=middle;spacingLeft=3;spacingRight=3;strokeColor=none;rotatable=0;points=[[0,0.5],[1,0.5]];portConstraint=eastwest;html=1;" vertex="1" parent="1">
          <mxGeometry x="450" y="170" width="70" height="16" as="geometry" />
        </mxCell>
        <mxCell id="KrkyhQDae2mYAKT2LnrB-18" style="edgeStyle=orthogonalEdgeStyle;rounded=0;orthogonalLoop=1;jettySize=auto;html=1;exitX=0;exitY=1;exitDx=0;exitDy=0;entryX=0.5;entryY=0;entryDx=0;entryDy=0;" edge="1" parent="1" source="KrkyhQDae2mYAKT2LnrB-12" target="KrkyhQDae2mYAKT2LnrB-17">
          <mxGeometry relative="1" as="geometry" />
        </mxCell>
        <mxCell id="KrkyhQDae2mYAKT2LnrB-20" style="edgeStyle=orthogonalEdgeStyle;rounded=0;orthogonalLoop=1;jettySize=auto;html=1;exitX=0;exitY=1;exitDx=0;exitDy=0;entryX=0.5;entryY=0;entryDx=0;entryDy=0;" edge="1" parent="1" source="KrkyhQDae2mYAKT2LnrB-12" target="KrkyhQDae2mYAKT2LnrB-19">
          <mxGeometry relative="1" as="geometry" />
        </mxCell>
        <mxCell id="KrkyhQDae2mYAKT2LnrB-22" style="edgeStyle=orthogonalEdgeStyle;rounded=0;orthogonalLoop=1;jettySize=auto;html=1;exitX=0;exitY=1;exitDx=0;exitDy=0;entryX=0.5;entryY=0;entryDx=0;entryDy=0;" edge="1" parent="1" source="KrkyhQDae2mYAKT2LnrB-12" target="KrkyhQDae2mYAKT2LnrB-21">
          <mxGeometry relative="1" as="geometry">
            <Array as="points">
              <mxPoint x="620" y="270" />
            </Array>
          </mxGeometry>
        </mxCell>
        <mxCell id="KrkyhQDae2mYAKT2LnrB-24" style="edgeStyle=orthogonalEdgeStyle;rounded=0;orthogonalLoop=1;jettySize=auto;html=1;exitX=1;exitY=1;exitDx=0;exitDy=0;entryX=0.5;entryY=0;entryDx=0;entryDy=0;" edge="1" parent="1" source="KrkyhQDae2mYAKT2LnrB-12" target="KrkyhQDae2mYAKT2LnrB-23">
          <mxGeometry relative="1" as="geometry" />
        </mxCell>
        <mxCell id="KrkyhQDae2mYAKT2LnrB-12" value="Output" style="ellipse;whiteSpace=wrap;html=1;" vertex="1" parent="1">
          <mxGeometry x="650" y="210" width="140" height="70" as="geometry" />
        </mxCell>
        <mxCell id="KrkyhQDae2mYAKT2LnrB-17" value="Show Peak Hour" style="ellipse;whiteSpace=wrap;html=1;" vertex="1" parent="1">
          <mxGeometry x="250" y="340" width="140" height="70" as="geometry" />
        </mxCell>
        <mxCell id="KrkyhQDae2mYAKT2LnrB-19" value="Show Average Service Time" style="ellipse;whiteSpace=wrap;html=1;" vertex="1" parent="1">
          <mxGeometry x="400" y="340" width="140" height="70" as="geometry" />
        </mxCell>
        <mxCell id="KrkyhQDae2mYAKT2LnrB-21" value="Show Average Waiting Time" style="ellipse;whiteSpace=wrap;html=1;" vertex="1" parent="1">
          <mxGeometry x="550" y="340" width="140" height="70" as="geometry" />
        </mxCell>
        <mxCell id="KrkyhQDae2mYAKT2LnrB-23" value="Clear Output" style="ellipse;whiteSpace=wrap;html=1;" vertex="1" parent="1">
          <mxGeometry x="700" y="340" width="140" height="70" as="geometry" />
        </mxCell>
        <mxCell id="KrkyhQDae2mYAKT2LnrB-25" value="Extends" style="text;align=center;fontStyle=1;verticalAlign=middle;spacingLeft=3;spacingRight=3;strokeColor=none;rotatable=0;points=[[0,0.5],[1,0.5]];portConstraint=eastwest;html=1;" vertex="1" parent="1">
          <mxGeometry x="435" y="250" width="70" height="16" as="geometry" />
        </mxCell>
        <mxCell id="KrkyhQDae2mYAKT2LnrB-26" value="Extends" style="text;align=center;fontStyle=1;verticalAlign=middle;spacingLeft=3;spacingRight=3;strokeColor=none;rotatable=0;points=[[0,0.5],[1,0.5]];portConstraint=eastwest;html=1;" vertex="1" parent="1">
          <mxGeometry x="770" y="300" width="70" height="16" as="geometry" />
        </mxCell>
      </root>
    </mxGraphModel>
  </diagram>
</mxfile>
